# xmcd CD database file
#
# Track frame offsets:
#	150
#	19545
#	31603
#	55113
#	77318
#	95920
#	115468
#	152175
#
# Disc length: 2445 seconds
#
# Revision: 1
# Processed by: cddbd v1.5.2PL0 Copyright (c) Steve Scherf et al.
# Submitted via: CDex 1.51
#
DISCID=54098b08
DTITLE=Anders Johansson - Shu-Tka
DYEAR=1992
DGENRE=Jazz
TTITLE0=North Desert
TTITLE1=Night In Narvik
TTITLE2=Dialogue On The Ocean Floor
TTITLE3=Oysters Of Confusion
TTITLE4=Murmansk
TTITLE5=Bastuträsk
TTITLE6=Garden Of Evil
TTITLE7=Meeting Between A Desert Man And A Northener Parts 1, 2 and 3
EXTD=YEAR: 1992
EXTT0=
EXTT1=
EXTT2=
EXTT3=
EXTT4=
EXTT5=
EXTT6=
EXTT7=
PLAYORDER=
